# xmcd
#
# Track frame offsets: 
#        150
#        14335
#        27390
#        40290
#        51770
#        62985
#        72910
#        82215
#        96020
#        106852
#        116410
#        126937
#        137042
#        147742
#        159632
#        170027
#        182285
#        193285
#        204900
#        214707
#        225570
#        234485
#        246472
#        256527
#        265962
#        276097
#        285990
#        295905
#        306582
#        317342
#
# Disc length: 4374 seconds
#
# Revision: 2
# Processed by: cddbd v1.4PL0 Copyright (c) Steve Scherf et al.
# Submitted via: ExactAudioCopy v0.90b3
#
DISCID=c311141e
DTITLE=Webb Pierce - The Wondering Boy 1951-1958 - Disc 3
DYEAR=1900
DGENRE=Country
TTITLE0=Call Me Your Sweetheart (1958)
TTITLE1=If You Were Me (And I Were You) (1955)
TTITLE2=Love, Love, Love (1955)
TTITLE3=Why Baby Why (& Red Sovine) (1955)
TTITLE4=Yes I Know Why (1956)
TTITLE5=I Found A True Love (1958)
TTITLE6='Cause I Love You (1956)
TTITLE7=Little Rosa (& Red Sovine) (1956)
TTITLE8=Let Forgiveness In (1990)
TTITLE9=Any Old Time (1956)
TTITLE10=You Make Love To Everyone (1961)
TTITLE11=We'll Find A Way (1956)
TTITLE12=Teenage Boogie (1984)
TTITLE13=I'm Really Glad You Hurt Me (I Found Someone That's True) (19
TTITLE13=56)
TTITLE14=Teenage Boogie (1956)
TTITLE15=Oh, So Many Years (& Kitty Wells) (1957)
TTITLE16=One Week Later (& Kitty Wells) (1957)
TTITLE17=When I'm With You (& Kitty Wells) (1957)
TTITLE18=Can I Find It In Your Heart (& Kitty Wells) (1957)
TTITLE19=Crying Over You (1958)
TTITLE20=I'm Tired (1957)
TTITLE21=It's My Way (1957)
TTITLE22=Someday (1957)
TTITLE23=Honky Tonk Song (1957)
TTITLE24=I Care No More (1958)
TTITLE25=Don't Be The One (1957)
TTITLE26=Bye Bye Love (1957)
TTITLE27=Missing You (1957)
TTITLE28=Let Forgiveness In (1961)
TTITLE29=Who Wouldn't Love You (1958)
EXTD=
EXTT0=
EXTT1=
EXTT2=
EXTT3=
EXTT4=
EXTT5=
EXTT6=
EXTT7=
EXTT8=
EXTT9=
EXTT10=
EXTT11=
EXTT12=
EXTT13=
EXTT14=
EXTT15=
EXTT16=
EXTT17=
EXTT18=
EXTT19=
EXTT20=
EXTT21=
EXTT22=
EXTT23=
EXTT24=
EXTT25=
EXTT26=
EXTT27=
EXTT28=
EXTT29=
PLAYORDER=
